<mxfile host="65bd71144e">
    <diagram id="nRG2_23Rcgha5k1NlZew" name="Page-1">
        <mxGraphModel dx="425" dy="920" grid="1" gridSize="10" guides="1" tooltips="1" connect="1" arrows="1" fold="1" page="1" pageScale="1" pageWidth="850" pageHeight="1100" math="0" shadow="0">
            <root>
                <mxCell id="0"/>
                <mxCell id="1" parent="0"/>
                <mxCell id="2" value="" style="shape=image;verticalLabelPosition=bottom;labelBackgroundColor=default;verticalAlign=top;aspect=fixed;imageAspect=0;image=data:image/png,iVBORw0KGgoAAAANSUhEUgAAAbsAAAFtCAYAAACeDsQsAAAAAXNSR0IArs4c6QAAAARnQU1BAACxjwv8YQUAAAAJcEhZcwAADsMAAA7DAcdvqGQAADa1SURBVHhe7d17fFT1gffxz1xyhYAYCIHITRTDXQxSo1KoZe2T1C3NWu0itKusNj5u0UJZnt1HaHcrPs8upaFKt48prrpbkF21pbQWWhs1FBCNRCQoRDEQwEAMhFvuc33+mNuZkxByIThz+L5fr3nB+f1+c2bmzOR887ucic3v9/sRERGxMLu5QERExGoUdiIiYnkKOxERsTyFnYiIWJ7CTkRELE9hJyIilqewExERy1PYiYiI5SnsRETE8mztvkHF7wV3M3hbweeJqhIREYlJdic4kiEhFWwOc60p7DzN0HYuqoGIiEhcSRoIztSoosgwpoJORESsoO1cINMMAmHn9yroRETEOtrOBbItKBB27ugEFBERiXuGbAuEnbfVUCsiImIBhmwLhJ1WXYqIiNUYsk3X2YmIiOUp7ERExPIUdiIiYnkKOxERsTyFnYiIWJ7CTkRELE9hJyIilqewExERy1PYiYiI5SnsRETE8hR2IiJieQo7ERGxPIWdiIhYnsJOREQsT2EnIiKWp7ATERHLU9iJiIjlKexERMTyFHYiImJ5CjsREbE8hZ2IiFiewk5ERCxPYSciIpansBMREctT2ImIiOUp7ERExPIUdiIiYnkKOxERsTyFnYiIWJ7CTkRELE9hJyIilqewExERy1PYiYiI5dn8fr+fphPm8hjl5WTlNv5j/Q7ePXGehjZvoNiRSNqgIUya/TUWf30c/YGqDStZtLXevAMAHEmpXD1sAn+54Kt8PfsqnMHy6Ptks2R9IXMM94uoYd2S1WyqC25OmceWZTMoWbWYogpT005k5i3luflZ5uIO1f3mx9z/yvFIgWMsj/z8u9zVz9iqM6bnbHKhYwJlrFiwkfLgVuQ5d3wMOnahfXTFEZ753k/57angZvKN/ODZv+GWqDZn2Pi/f8Qvj4a2B/G1f/4BD481tqnl+e//Ky9/Fthy3PQtfrfE08HzotPj1JGcwjU8MbOrrzG6XeC+pibtdP1zb9adz01nPzMkJDNw8CjumDuXb98+jCRzvcHbP/tf/OhtV6Tgqlv58c/uYaKxUVBXf+ai2mXMZm3RXKLeXpEL6TcM4qpn5znLH4p+wMKVv+ON6jORH3gAr4uGUzXs+vMBgueyTnnbmjlZvZvnVq7k4Q1H8JgbxJxT/HGX4YQF4K3ize0t0WW9EDkmT/Ld/46lYzKKG69LjGy21nE4FHwhTRXsDgcdwBk+2HfGWACewxw0fDjGTRhvrI1dvfrcX8LPjbuVcyc+YtMzq1iwqoyz5voQz15ef98QdABnKyjZH10kcrnFTdhV/erf+Lf3mjH8qF8CXo5vLWZ1+aXd6yX32bu8VRP8v8OBI/jfA++U0Whodml4OPq7l3jZHCifo+lTrw2/ZviMjz+OqobKag6bio58fDA6sD8+YmgznOnTU4y1MatXn/s++tw0VbzE/ynpODA9e/ZQ3hr4v8MResRG3n7L/KaJXF5xEnYf82rpqcgPvGMwX3nsH3n5hTVsWb+GTT9fwU8ens1NQw09gCjZLFkfavsYf3fTQMPJs4WyXQeiWvfUnGWBxwjfCrMNtZHnELp1PMzV3vEdFRwJ/j85ayhDQhUH36ekKdKuW6bMCz6P1bz844V8ZWjkiEAbjb05G15izvFjGBXe8nLok9DRCNi75xOC59cw7+FDfGjYrvv4GOdCG2kjmDDYUBkli4eKot+ntXnpkeqM2aw1vY8XH4bsqd597nv3uYl8Xn/7i39k+ezBhp8ZLwcqOvqZ8fLOWwfC78WoUcPD9zlX/h57DS1FLrc4CbuznGowbGbfwd/dnEG/4MRS0oCrGX/7XFb+r7yLjuMnDRjNVx8t4JbkSFnr4cPhk0LsqeH3O2uD/3cwMe9OxoWfezUlfzIN13Wbg37DJnPXTVcZypLo39EE0Odl8ESmZkQ2Tx6uNvRMaijbH9xKHsCg0LFpqOK9T8ON2H8oMtCXPHESUyNVMaw3n/tL97lxpmZw6/13MNlQ5vV0MNDtKecP74WGMNOZ+tc5jAvVNexha2iiUuRzECdhl0o/Qzjx4e/4378/QZuhqFucg8kYYNj2+2Jojsrk47fYFl4sMYKcm6Yy+8bIb/KHyt6lG2spOuCl6fAbFJeGFgk4GHBbHvdcsOfzechixgRD+h6r5oPQ/099yN7QAciYxC3hUDzFBx+EhtpqOPhpZCBwzHXtoyE29eJzf6k/N00tNBs2k1NTDVsBjaVlvB86zFfdwK0TpjB9ZKjWRdmu8LsmctnFSdiNZ/aNxjmWFj7YuIp7v/cM63Yco6m7SeU5Rd15w/bAqxhq2IwlH+78gNOhjetvZE4/mP6F8YTPgUf38npP5tcqNpK/YDH5C5Zyz4rf8UELkJDGxLwHeeZ/TjKsxowNE2+4JjKM1vopB4K9Ns+BSK88c+Kt3Jk9KNSKw59UBRsd5XD4zH555utqt64OHl/zLbIS8+J6/rm/lJ+btrp9rPtJCZFZtwHcceekqDbQQunb1eEh14E3TmUig/jyjOHhFq3vl/N2eKsjlRS1O16B2wVXiYp0UZyEnYNbHi6kIGpeCdynPmLTM0X89Xd/yro9Z7vUO2s7X80r//Lf7DRM8oyaNLHDZdufv0O8WR5J5WunTqE/4Jw2gYnhQ3GcP2/r4lnrIhKcTlrP13OmS12Hy8t5U3ZkSIxTHDwYOK3u3nsoeIJNZFx2FjdMHBU+obd+8jEfYVqcMngsN8VUr7UzPf3cX4rPTSR4CpY8x6ZDoV6yg+F5C3k48mYENO3mz8H3BBKZOi3QIOPGcWSG2rTu5/V3e7TURqTX4iTsAOcoHvrX5fxT3igGRP/s4208wqafdLZk3vCD+8hTPFdpWEmWciN/MzdGz377y9gZXuOdyRdyg70W52S+cH3kIBwpexfTAvMecbecoWrnK/zdd4spCa/miBH9riPbMG93uKoK+Jh3PgzOETmuZfpUYOo4wsuCTlXx3qnoxSnJ143jhlB9POjJ576PPjcJA8eQ/91lPDN/VLuef+P29/gglGPJE5idE/z/6Onkht83F+VvfXCBn1GRvhU/YQfgvIoZ87/Hf/1iOcsLbiAjwVjp4ejvfsnz1cayzjn6X893frSAW8w/uTHi7Tf2RFYQZmRza3isNYXZ00eE21FTwesdX2h1YeHVmB2stmuppPjFWLswKnre7tyhauo+/Yh9oQUc12YH3kdnNpPD80SByxQii1McTJx6ea6vy8xbGrViM3KbRygHuqybn/u++tz4vD7Sh6S3Czo4w+/+HHkCyZNvZHp4K4tbJ0cmyFv37eGdC6Zd+xXLoVvUiliRHoivsAtJSufWux/mhWeWsTDbOKdRzzvvhFagXYiT1MFZ5BYsZN1Tj/D1YaZfl2PGB5QaL86tK2WRYQ7j3vXGVK/lrR2dDUl1zpmawa0PLuCrhg5u08GDBGe8YsbUCaMigVxzlLIPDoV7JpnXXRccih7ETeF5Oy+V+7cZFqcMZcL4WH2/u6BLn/tL9bkJBM9vn7qXnOBDeRuP8Mt/ebZ9r//Uu+w0XNTf+u4LfM3wmH//umGCvPUApXs0lCmXX5yE3Xs8/2xl+29tSBrGN+ZNj1w/BPg8Hf0gGX9j/DGv/HQpK+6eTGZn33n0OfO8u5sy88VjnTiyc2cvw6mNthicq4sy9frIvJ33M15981hwoz9Tp0WuWTTO2507VGZYrTmOGTE6Yt2x7n/uL/Xnxpmeyw//YWZk3q2lkuLi6G9QOb5tD4cM251z8fab5RrKlMsuTsLOw6HSYv7me8/xygfHORs8Kbedr+aNPxyIrDoDUvu1XxIdf6Ivzu2Sun280Y0hXCNPcx1vPfsyJYZruhyZwwwXcseIfjcwKTwkd566+uAvNo5RTJ1gaGect6s7Fe79JV87toPr0WJZdz/3ffO5cY6dy3duifQkmyp+w1Nvhea9T/F62cVGU6J5P9xDqdJOLrM4CbsA96l9PPcvP+a+v40sNlm9y/gNE8O5LTQZ32sXWAa9ZHOnvwlfElEX54Jjyjx+28E8xpYf3MrV4Vb1bHuz679fRy49WMzXvvN/WWn8pg5SuO3LOR3MzXTCsD/jbeGG0PdVRVxoWf6K7eaWZpncND40b+eiNXRWv/Z6wxyRad6u1RU8+V+++bpLrcuf+z773Di45YFv8IVw3rXwzvMv8bYHqN7Jm4a3+EJzlS/dPzYyBO09yGulHX/dmEhfiauw65QjlS88+DDzYvWCuW6IujgXB+Nvmtxx8Iybys1pkc3T5eVRX5HVM05G/mUhS3Nic25r6rTrIteKBYWW1kcY5+1CRpBzU2y+pl4xfO779HPT7yYeu3u0YRHT+/zshY+pePM9Iv26Adx0c8dfgdc/d7Lh0hEvB97e3avv5xTprjgJuxz+4Yn5FEzPYki/RMN39DlJTctgwpf/klVFP+KHMw0/wXEr+uJcGMGtuRe6CHocs3MMp/mzH/BmD79v15GUypDR01m4/HF+9s32S8tjRvZoxkQV9Of6ceZgi563AyBjNJM7+LM2sa07n/u+/9xc9T/mc9/IyLM4XbqBZ94xLD5JG89M8/V3If1mMPP6yKb34F5KL/r9nCKXTpz9PTsREZFuiLu/ZyciItJDCjsREbE8hZ2IiFiewk5ERCxPYSciIpansBMREctT2ImIiOUp7ERExPIUdiIiYnkKOxERsTyFnYiIWJ7CTkRELE9hJyIilqewExERy1PYiYiI5SnsRETE8hR2IiJieQo7ERGxPIWdiIhYnsJOREQsT2EnIiKWp7ATERHLU9iJiIjlKexERMTyFHYiImJ5CjsREbE8hZ2IiFiewk5ERCxPYSciIpansBMREctT2ImIiOUp7ERExPIUdiIiYnk2v9/vp+mEuVxE5BLyg6sRXA3mColHiWmQ2B+wmWtiT79hoLATkb7nh8YTkDYCUjPMlRKPmuug4Rj0Hxb7gRcMOw1jikjfcjUq6KwmNSPwnroazTUxS2EnIn3L1aCgs6LUjLgallbYiYiI5SnsRETE8hR2IiJieQo7ERGxPIWdiIhYniXDzt923FwkIiJXMEuFnbt+P56aLXg+ehJP3cu01r9tbiIiIlcgy4Sd++xnnPrVk7Tu+zW2Nhve6jfwHvoP/O7z5qYiInKFsUzYJVw1lMQxd9JU1UpTdQutn7Zh6/c/sCUMMDcVEZErjGXCDqAp8yZ++a6Dn/3OzdqtidSnTDU36Xvbi8lfsJJ11cbtYkqCmyWrFpO/qsxwh0urr/cvIhKPLBN2PncTtrYDXDfBxfjJLUya3IK9dQ8+b5O5aY9VbVhJ/oLF0TcFi4hIzIv/sPN58X74K1pf/z5Xnf0NX77NT95XBpCf15+hqX/Gf/xH+Op/A/jM9+yZjNmsXb+GLevXsGX9PHIqNrJwQ02kfmYhW9Yv56HRxjuJiMjnKb7DzufF8/bP8XzyOn5vK3582Gx2bDYHNpsz+K8NWt/FX/fv4Pea99BLM7g/L53aGkPYiYhIzInrsPO8vwH/mcP4/B68uPH7/Zw9a+OnRYngt4Hfgc1vDwSe7xi++lfMu+i1wzX10QWmObpuucB9qzasJH/JZqoAKGNF1FBq+/YRNaxbspgV26NLo/dnKDPs13wfEZF4Frdh562rxH9yHz6vC6/Pjc/npbkJfvvHRPDb+cNvbPi8NvDb8Xv9+L0+/E178TUZT/G9tL2YoopsliybYa7pmZnTyKGSbVFBU8YLW+vJKZjLWKBqwx5GrgwNo65hyZRKikzB1V1VG1ayqHxyZHh25WxqihV4ImIdcRt27uodeFwuPK42PD4Xfi/s2O3A5XKSf2cjRw772F/uxefx4Pd48bW58Xs8uE/tMu+qe+pKWRTqARVXkpl3F3PMbXpsBrOmQPkuw6KX7XsoJ5tZMwObY+cXRs0HzsnNhrpaDkeKuqmMF7ZCwaOBMAVg9FzuMz8PEZE4Frdh13z0I9oa23C3ufC6vfg9gSk5m9/PgBQ/s25rYVBaC97mVrwtLnytbrzNLtynPjbvqnuiFqis4b6a1e2GBHtjzr2zyazYE7lUYVf7QI0aciyuNNT0QPUJaqhn0/LoVaZFFeaGIiLxK27DruGz87Sea8Hd5gYP+N1wS7YXm8/Nhl+nsuf9fiTThvtsM+5zzXjOteA514q7/ox5V70y597ZZNbt443QdXW9NXo6uRmhocwytlWkk3tbVrAyMF8XNeRYmB19/x7JZokhwMO3SzU8KyLyOYvfsKtvo6XJjacN/B4buOGjI3Zm3ODlO/mnaGps5dBHCXjOtuI+1YzrZBNtJ5txN/jNu4oxWdyRkx4YQty+h/KMydwRGrYMDmkuKTIMOXZBzdHo1aJRi2pGDyOr3TyhiIi1xG3YkTqEpgY/rlbwtoHfbePMORul+1LY+0kKPn8ydk8rnvMuvOddeM65aDvtgcRQL+nSKHmplFpjIF0CY+ffSU7FHlbsqgwvTAFgRCaZnORwuBdZxopOhzEDwVm79dXIis3txaYhyuA8YXH0qs6qDcWRb4EREYlzcRt2g2/5CxrOemg676e1yYar1cYXr/eRkdrK7qoBjBt6nmvTW/C7bPjabHhabLib/aRe/0XzrrrHuEBlwWKKmMeWbva0Lm4Gs6ZUUl4RWZgCgYUjj+dhmF/bw6yLDGOOnf8ABRmVFIWe865prM1Lj2ozZ1lwVafhdS2qmaYL40XEMmx+v99P0wlzeVzYW/RDmo7sp/8AJympkJAALR4/f/w4jXtvagQb+HyBm8cNyaNzGP6NpebdiEhfajwOQ3PMpWIFn5VD/+Hm0tjSbxjEe9j5PV4+2vAMtW+XkpBoIzHRhtMJdkewgS3wLWFev50ht9zJNXd9G1u4UkQuC4WddSnsLq/G6oPU79+H3+vBZrNhswWDDnAmJ3HVuMmkXjPGfDcRuRwUdtalsBMRCVLYWVcchV3cLlARERHpKoWdiIhYnsJOREQsT2EnIiKWp7ATkb6VmAbNdeZSiXfNdYH3Nk4o7ESkbyX2h4ZjCjwraa4LvKeJ/c01MUuXHojIZeAHVyO4GswVEo8S04JBF7ygOZbpOjsREbE8XWcnIiJXCoWdiIhYnsJOREQsT2EnIiKWp7ATERHLU9iJiIjlKexERMTyFHYiImJ5CjsREbE8hZ2IiFiewk5ERCxP340pIpeBvgjaUvRF0CIiZn5oPAFpIyA1w1wp8Sj0J376D4v9wNMXQYvIZeFqVNBZTWpG4D11NZprYpbCTkT6lqtBQWdFqRlxNSytsBMREctT2ImIiOUp7ERExPIUdiIiYnkKOxERsTzLhZ27qRrXuR34vefMVSIicoWyVNg1H9/L2T8vp+mTNfg++0fwx881ICIi0ncsFXZtZ4/jbx1CYttVtBzx4/e6zU1EROQKZKmwc/q9tNpdtLha8Q/0gFs9OxERsVjY9bt+DkOSfSSeayQlNRdbyghzExERuQJZKuz8r71C0lsH6HfiDM4tO+Gzo+YmPVayajH5SzZTZa4I1a0qMxeLiEiMsEzY+T/5CMer/4G9yYbjUAKcqoWN/2pu1mNz7p1NZl0pL2w3VVRv5sWKbJYsm2GqEBGRWGGZsHOd3Icn2QMtdmgCTrZBbRWc2G9u2jOj5/J4Xjrlm4y9uxrWPV0KeXcxJ6qxiIjEEsv8Pbvmg+tx/PuzJNUlhMs8s1twFvwrpN0W1bbnylixYCMUruGJmcD2YvKLYcn6wmDY1bBuyWo21UXukRNqa6g/WmAsg6oNK1lUPpm1RXMZGxwWLWIeS9hIUQVk5i3luflZkTsYVG1YyaKt9eHt8ONVb2bh8lIw3jdYllW4hidmBp7LrpylPM7zhn1kG15PwAUfg9A+95G78k6OLt9IebDY/JxLVi2mqCK82cE+SqkNVU6Zxxb1lK2j8TgMzTGXihV8Vg79h5tLY4vl/p6dH046rqIq8frw7Yx/kLlVL83g/nDvroZ1myrJDPfqylixYDWbMuexZf2awG3lbGqKF7NwQ415RxdXsZFtuYH9dBp05ZNZa3q8FdsDPdHnCrOp3foqJWDohS6NCtrarat5kgfCz3nJlEqKFhQH73ORxwirZ9PyPcwKtSnMpnbr86yrjuyjqHZ2ZB+F2ZG7hsMyWLd+KQW1GzUHKiKXlHXCDjgycixvjc/n7Ulf5a3x+ZxN6W9u0mtj599JTl0pL6x6lU3M5vFgEFVteI3yjNmsNfZIgkOfteW7O1zY0qmM2dxvCKX2ynhhKxQ8GugNQuDx7psC5buCQTHzLgoyKnlxQw1VG56Per5hU+ZFhemcZfPIoZJt2+naYwTlFBp6gzPvoiCjnl07AyF/uKYeModF9jGzMBy4JS+VQt4DPDQ6VJnFQwXZULEnHLgiIr1lmbCzpwzBkeQEYNDggQAkJtkh6VJffhDs3VVUklMQCYHDNfVk5kyPnNCDxt42mcy6Wg6byi/KGA4dqT5BDfVsWr6Y/AWRm3GoELJ46NHZsHU1i8yhFZSZZe41ZjEyA2qO1nTxMQDSGdnJYZ5z72wyKzaSv2BluLcXUMPh2kDv0rj//OJKYyMRkV6zTNglDrmZxMybAEgbmBr497qvQOJIU8veG3vbZDIvcoK/PLJZEhoaNN6iepfDMMdZ93ThMS5m9FyeW7+GLYVDgsEZHXo5hR3s3zRvKCLSG5YJO3vy1aQMD5yAk1OTAHAM/ytTq74zJqvj4cqqnfuozchkjKGs5mj0HN7hmsjijy4bPYys8HDjhZWs2khN3lLW5sGmpzu+TjBK9W521aWTe1tWlx+jy2YWBubkwkOcWYzJbD8kKiJyqVkm7AAc9s/v5YTm8hYZF1ZUb+bJrfWG4c4s7shJNywaCazobD8s2BUzmDUFyosji0kAqjYURy8MqcjmvvlZ4ef3pGmxTO3W1YbFJoFFLLUZk7ljNF16jK4oWRV9f6M5udlQsTF6wUv1Zlb0ZFGPiMgFfH7p0AcSkyKXHQAMHHTpF6hc2AyeWD+PnIqNkbmn4CpD4+rHsfMfoCCjkqJQm13TWJuXbtxRl81ZFlo9GZnvWlQzLbDYY3sxi7bWGxaOzOCJwmxTuEFm3jxGbgrdfzWbmB2+BOKij9FlxvsHLncIL4qZWciWwmzKiw1zdstrmWVeSCMi0guWuc4OoPrgcbZveY/x067lwJ5DfOuxu8xNJCxynd2FLm0QuSR0nZ116Tq7z8f58y6qDjeQmJrIRwfraWpqMzcREZErkKXC7tDBekZcn8WQYVcz9QvjOHgg/J0cIiJyBbNU2H39r3P427/7IsOyruaeb+Vy4/RR5iYiInIFstScnYjEIM3ZWZfm7ERERGKHwk5ERCxPYSciIpansBORvpWYBs2GP/Io1tBcF3hv44TCTkT6VmJ/aDimwLOS5rrAe5p4Ob+lqne0GlNELgM/uBrB1WCukHiUmBYMOpu5JvYEV2Mq7ERExLp06YGIiFwpFHYiImJ5CjsREbE8hZ2IiFiewk5ERCxPYSciIpansBMREctT2ImIiOUp7ERExPIUdiIiYnkKOxERsTx9N6aI9D2/D1znwd1srpF4lJAKiQPAFgf9JX0RtIhcFn4fNNVCagYkDzLXSjxqPRP4Mz/9MmM/8PRF0CJyWbjOK+isJnlQ4D11nTfXxCyFnYj0LXezgs6KkgfF1bC0wk5ERCxPYSciIpansBMREctT2ImIiOUp7ERExPLiPuz8Xjctta/ibXzTXAVAW/0OfK0V5mIREbmCxH3YHf/jMprfe4bGqp/hrXsmuq7khzTvXU3jxyvwN/w6qk5ERK4ccR92zpYzNJy/moYzObjPtUTV2c4ewck12D3TaT1RE1UnIiJXjrgPu+SrriFtQCJJ6WdITDLV9etPc8NJXP0bSEx0R1eKiMgVI+7Drv+Ub2I7VUe/U6exZT4QXZf9V6Q0N5J66gT2zPlRdXGlejMLF6xkXbW5QkREuiKuw85d/xnnin9Cv6OnSdlTg+31F8N1rrpaml55maQj50h6ux7b7/8TvJ6o+/dE1YaV5C9YbLjFSAhVb2bhgmJKzOUiIhLfYVf3X7/Ad/wI1DmwnfTBrt/DwT0A1Bb/BM+hA3DCga3eA++Xwvsdr9jsqpJVi1lUPpm169ewJXhbmzfE3ExERGJMXIcdzRXgBVx2OOfF3+DCX7sTz+kTeOs+Ap8N2uxw1ou/oRX/6e3mPXRDGdsq0il4dC5jDaVj5xfy0GhDgYiIxJy4/nt2J5/Nx/ZOK2keSMKBd1Aivq8Nwp31Tep+9wv6728izQtJNgfegR7sD43BNuE58266qIwVCzZSk7eU5+ZnmSvDqjasZNHW+vB2ZlT7GtYtWc2unHnklm9kUx3kFK7hiZmBXmOR4XLAUDkEhyiX7yN35Z0cXb6R8mBx9L7NAo+1qS60nU7ByuUXDubqzSxcXkptaHvKPLYsmwHBHm1RRTZL1hcyJ1hdsmoxRbWzWVs0l8OrFlPEPLbk7iG/uDLYoqPHCxzD0PMnI3D/wC8PoWOzlPtqVkeORVQbYHux4TGinyfh5xra6ug5yGXXeByuvsFcKlZw+iPoP9xcGlss8ffsHB5OpYzk2IAJHBo4iepBM/A1N3Bu/yskjriZ+tRRHEvL5tCAiVQ5rwO/eQfdMYMnCrOp3bqa/FVl5sqgMl6ouTM8xLll5WzYupoVpg5l7dbX4NFAmydmBoJmW9bSyP0KsykvNs8F1rNp+R5mGdrUbn3+gvOFJatWsylzXteGW8NhGhqeXUpB7cbw65yzbCkFGZW8uCF4+cb24kD4GUOoYiP5u6YZHg82LTe+hkDQURgZAl6SWcqiJZupCjUBareuZltuqM08cupKeTL0uNWbWVh8koLw85xHjuG+JaHQDR+jIabnICJXqvgOu36t/Om6uym5oYDXx8/lvfF5eJKu4eyxQ1w950F+e81c3ph0D29O+ivKxt1pvnf3zSwMnGArNgYWp7QLvRk8YehlMHo6uRlQc9R0jd+UO6N7G6Pn8oSxhzZzGjnUc/SYoQ2QUxjpWTHzLgoy6tm1s6PrB2s4XAuZWZF9djbcWvJSKeQ9YKjP4qGCbKjYE1zwEtiu3foqJZSxorgy+rkQ7IEZXvvY+Q9EPb+qDa9RPmVepLcKzLl3Npl1+3jDGEZRbWZwf146teW7A4F4rJZahjAm/DwNx7t6My9WZLPEePw7PUYiciWJ67CzpWXh9bhodTXS2NyI0+nEnTqGhJSBJA8aTltbK03N52lqaaJ/igeSRpp30QMzeCLUq6jYSH67FZBlrAiv1DQOI0YYQyisejMLw/czDPWFpTNyhLnsQkLhtLqD52cWCMZAW8MqU+NQIYGgXzKlkqIFG9uFFgCZw6LmMiGLMZlQWxMImsM19YHen/ExjMOmQR0em5CZd1GQUUnRgsUsDPX2Qo7VUkugLvIYHR9/EbnyxHXYpU56GIfTSdqAVBITnaSlJXFV7lKu+9tXAUhJSWJoxlX4fD5Srs7CNvgvzLvohRk8sT56eC9wWYJxqG4pBRnm+7VXsmox+VHDiNHDcz0yszA4nHgyGACdh16OYXgxcovuvY3JSjdsdV9mnmGoNnzrzpxaFg8VBY5PVjCco0IvY3bUStnQ7cLzmiJypYjvsBsxC4ABA/oBNnM1drsdZ4KTpMQEHEmD4arbzE16ydh7qeGN8noy85a27/V0qoxtFZBT2J2TfteNnb88GJ6VbOtwMWrgNZTvMg/JmlRv5smtQ1gS7NGa5yHbC76u3MCw4pgsw3BkrwV612uNQ5wjMtsPiYqIBMV12AE47HYSE53mYgDsdkhIcACQkpJoru6mMlaY5+iqN/Ni+IQePWwHULXh+S4Mo2Ux0jSvV7Kqo2HM7qhh3arohR+dmZObDeYAq97MinCvqYwVy0sh7y7mBOfRyotNPcWKjVG9rMBryGZWMPjH3jaZTONiE+j4mHZme/GFQ3b0dHIz6tn0dPTrLlnVeY9WRK4McR92iYlObLbAyxg+7Op2dXZ7IOwGXdUvqq5H2s05BYYeQz25OcsMi1cWLOZJ7uzCMGYWDz0aWLUZut+23EswjFlbyqLwcw0MrV6wxzmzMLgC1Pjaapk1Pyt4ScBGyjNm83hwODCw+KSSIuNKyinzuK8m8hrMlyowei7PBVenRo7ha4y817CgpAuMz3FR+WTDZQlZPFS0lAKMr3sxL2bdFb2QRkSuSHF9nR3As7/YSsawIdR8Ws+sWVOYMCFwTQXAuuKtDLtmCMeOnmbWrMlRdXLphJf8G1dCioToOjvr0nV2l4fX66P6o/O4mn00nW1m/95P29UlksTZunPsr9DycxGRK1Vch13N0TPk3HwdkyaNYOrUMdj90HC+NVw3fcZ1jBw9mJtvvh67z09jQ6BORESuLHE/jCmfPw1jSqc0jGldcTSMqbATkb6lsLOuOAq7uB7GFBER6QqFnYiIWJ7CTkRELE9hJyJ9KyEVWs+YSyXetZ4JvLdxQmEnIn0rcQA01ynwrKT1TOA9TRxgrolZWo0pIn3P7wPXeXA3m2skHiWkBoIu+FWNMU2XHoiIiOXp0gMREblSKOxERMTyFHYiImJ5CjsREbE8hZ2IiFiewk5ERCxPYSciIpansBMREctT2ImIiOUp7ERExPIUdiIiYnn6bkwR6XNerwdfWwMJvhZzlcQhtz0Fe1IaDofTXBV79EXQInI5eL0eHC11NHA1LbaB5mqJQyn+c6RxGm9KRuwHnr4IWkQuB19bg4LOYlpsA2nganxtDeaqmKWwE5E+leBrUdBZUIttYFwNSyvsRETE8hR2IiJieQo7ERGxPIWdiIhYnsJOREQsz1Jh5z3/Eb4zu/HWv4X3fAU+10lzExERuQLF/UXlPtc53If+C3/9DhxOL/akRGwJCfidgRvJQ2HAbJxpt5rvKiKXQ+Nx6mxjzKViARn+w9B/uLk4tljhonLXsTdo23Y/js+2kuhw4Uxw4HA6sCc4cSQ6cSYl4HA0YG/dgvvUU/g9n5l3ISIiV4C4DbuWD3+N+70fY/O38cFhP7s/dmDDDn4b+ADs+Pzw8m9Oc77ZjjO5EW/LC/g8x827EhERi4vLsPPUHcT1/n/it3n55ISHX77Zj/8qTeLgMX8w7Gz43F5ef+0Em//g4t//4zRenDiSnfjafmve3WVRsmox+avKzMWXQA3rlvTVvi+R7cXkL1jJumpzxWWyvZj8BcWUmMt7qyv7rd7MwgWLWbHduG04Fl3Zh1weR3/F3xc+wk92mStgx9OPcP/Tb5uLJY7EZdi1lP8Kh82Hy+vn5R1pOH0eBjkbeO73dvACLh+u000889927pjUyLEDZ/jjltPYfOBwnMfX9p55lxdVsmox+Us2U2WuMJ/MwuIghEQkYuTdzJ0I+941hdrRX7H5wwk8+Ogt0eUSV+Iu7HwtDbiry3Ha7TjskJzgw2dPoF+Kgy9O8oLbDy4fDq8Np8OPx57KtaOSGDcMaGzG1uYCV/d/Q5uTmw11tRw2lVft3EctUL7LHGo1HK2DnNwZpvJLLYuHitawZVlfP04vzCxky/rlPDTaXNEHYq2nNHouz61fwxMzzRUSi27/+pcZ8uEWNh6NlO34zeswZy63GxtK3Im7sHMd3I3NZ8Put5FgdzBtbAtX93Px4dEUDtU6we0Dl48E7OTl2Dh70svOfXYaTrVAQzM0tWJrqQW/17zrzs2cRg6VbIvqwdXwRnk9mRnpULEn+gS7fQ/lZDNLJzmR+DHybuZOPMUffxP8hTjYq5t7z4jw9t8XPsL9odvjv+KI4e4dDXceefkH7cpi0f2Fj/CnN0rNxfzpjVLuL3zEXBx34i7sPOfOYPPZsPnt+DxQun8Q/ZPdfGnyGQ7W2MBrA48fd5OPV8uTeORrqUy6xsORoy5oboPWNmhtwe89a971RWQxMsPcg6vhaF06uQWTyeQkhw1zUiW7KmHKNOYYWgNUbVhJ/oLFwVsHPZDtxYb6CwydRgkMly7cUBMpMu+jk6HU8Fxi1H3az6+VrDLsr7M5qBBjD8vU2wo95kWPRXCIONRm4Yay9q/VoGTVYvKLK4FKijrap2l/7Yeey1hhPG4XPfYh0feLen4XOj4SswK9u93sMPfqdv2M+5/cy02P/5wXigO3B4e+zg9NgRev/uKOL/HiSy/zwf4D4bIP9h/gxZde5i/u+FJU23gUd2Hn9/nxe2z43XYcfid5U8+x65Or+f37Q7g71wM+P3jBCdx+bRsLn/ZR1+Rk5jg/tLqgzQ1tbmze7v5piizuyEmH2hORE+D2PZRnTOaOmdPJzahn187QSa6Gw7WQmZUVuTtAxUae5AG2rF/DlvVLKciopMgQRFUbVpJffJKClWuCbdawJLOUReaTdmeqN7Mwah/zyDG3MavYSP6uaeHHXJsHm5YbTtDVm9mWtTRcv6Uwm/LiYP1o82sPuFDYh13kWFC9mYXLS8kqjByL+2o2sqnOuJNoc5YFnhtks2T9GrasLzQ8fiVFT8Pj4deYTnmx8biWsWLBRjA83pLMUhZdNPAqKVqwh1mhY7NyNmxdfcFAljgw8m7mTtzP5qd/ZujVHWPjq/sZMuch5o2MNL390W8z+dRe3jIMe8arefd8g2lTp/D0/yvm2KefcuzTT3n6/xUzbeoU5t3zDXPzuBN3YWfzO/B6HPg9dhK9Ccy4Fr71xXruvb2F28cD/lA7G4/mJ5Gd0cI//CUMTvWD2wsuN363G78t0bzrixp722Qy6/bxRjAESnZVQuYwxgaDsLZ8d+DEWL2bXXXp5N5mCruM2Tw+P1SWxUMF2YbhzzJe2FpPTmH03NacZfM6GD7txLFaahnCmPA+ZvDExebzMmaz1tBm7PwHKDAG2Oi5PBF+3qEh3XqOHiP8OsKvHYAytlWkU3BvJ4/b6bGAkpdKqZ0yL2qua86ypRRkRLa7J52CR+cyNrg1dv6dUce1asNrlJsf797ZUe93x9IpWGkI1dFzeTzP8FmQuHT7178MH+43zNXVcPwUZF4THM4My2L44FMct8DvNna7jYcfXMiIrOEUrf03itb+GyOyhvPwgwux223m5nEn/sLOmYzPZcPTageXk0R7Nl+59Tt8/YvfhqRv4U++D3/KfPz97sM2YD4/+tsHGZr5TfD7wecFjwe/yw3ONPOuLy6qF1PGtorIApRAEAYWsFTt3EdtxmTuMC/IyBwWPtm2U32Cmg7n+GYwawrUHO3iT9PMuwK9JPNwWmfaPa8sxmRCbY15OC40VLeRcmPzmdPIMYZCqMdrfv1G7R7TKNAzvrSLe4y/ALR3uKY+0MM1DmMuL6XW3LCd9vsdO3JIh4uZJI6MzCITc7gNZrjp91erSUxI4HvffYSEhAQSgv9PTEgwN4tLcRd2iaOycbfZcbfa8bU6sDUdZV/pRPa8Npm9f5pIRckEKl7PZu+b2bxfegN7Sm/gyL50wAc+H36vB0jAZk8x77oLDD04cziNHkZWsKdwuKb+IifzvhRcnbl+HllbV7efQ+qBklWLyV++j9wLDo3OYNaUSE+wZFclOQWRXlS8yMwzDNWGb5dpFanEuEAP7r13jpnKazh+KhKCI4YNNtXDsROnzEUxLa1/f1at/BGrVv6ItP79zdVxK+7CLmHEaGwp6bha7Lia7fhb7DTv+DW/3f06Pxj9Mt/P/W+W3vgiy2b9ijVDXmXnH9/CefbXYPfh97vxed34B0w377bLQr+1v7FzH7VRc1KBHlj5ruKoHl+XGcIyWqAHmTWyu79SzuCJ4NxU94fUjL3W4P9Nw6tmc+6dDeW7qaKMbRUd9VC770KXc/SFMVk9OU4du+h8pcShEcy7awInS9ZFX5bw9H+yb2J+eB5v1DUZYLx0YdfPePbDSHv5/MRd2AEMnHMPra4EWpvstDU6mJq/l3f+oZWWqf1J8CXQb1MtCSMGcObuNJzLTjHq9iP4ceP3u/F4vDiG5Zt32XUzp5HDSXaV17dbgDInNxsqKnt4ycEM7s9Ljyz8CCpZtZHyjNnc39X9bS/uYJXhRVRsjOr9lazaaHgNgVWoxmHUQL3J6Onkso83NuyhvNcn+tAc3sao19Lh45qNyGy3MrYrAsPQpTwZ1QsuY0UnK1kDKikyLmLZXkxRT37ZkdiX+11euD+DPz4ZufTgWb7NC8aLzXO/y4MTT0XavDudf57Tvrcnl19chl2/m28l9fqZtLgG0NyUgM/u4iqc4E0h4d2z+McOwNlmY+jgoUya1BDo0XlctLW4sI9ZiC1lqHmX3RAYsqvtaAHKiEwyoce/1Y+dvzy4EjIyb1TEPLYUdW9IsLw4cv9F5ZNZe7H7T5nHfTWBIc/8BYspqshmSXglYxYPPRpYYRiq35ZrHsYMtLsjBzZtPdn5wpSumlkYXPUZeS3bcruwQGX0XO6bUh88ht1YxTp6Ls8FV1JG5u1eY+RFX0s2SwpqWRS6T3ElOYW6iDz+3cL3i3/O93NNxbnfDV928ELxz6ODLuj2R6PrR93zow7byeUVt3/ix+/1Ur/hNzRX7yc5uZ5fjLuO0iHDSf7gGM6P60l7YCIjb76BeX9ez9jPqnG3JZJ84wISx/aiV2dBJauCgXqxFZtdULVhZdfCtcdqWLdkNbtylvKccXWoxDb9iR/L0p/4uQxsDgeDv3036V+5B3dbLtPrMrC5nCSOzSLpnJdh142Bs41k7E3G1Xorqbf/s4KuTwW/TSZneh8FXSeXdIiIXETchl1Ivy9kk7Xim9xx283kDR2FLW0ojge+zLk6OwWfpZM+dxEDv7EE59DrzXeVS2n7q2yqy+a+S9Xj2l5sWkVaxorlpdROubPThTIiIh2J22HMC2n0emjwuhniTMZpgQsh+1rvhzED3zxSTjoFKztfsdktwW9QibrObUpvnqd8bjSMaVnxNIxpubATkRijsLOseAq7uB/GFBERuRiFnYiIWJ7CTkRELE9hJyJ9ym1PIcV/zlwscS7Ffw53j75j+POhsBORPmVPSiON0wo8C0nxnyON09iTevDXYz4nWo0pIn3O6/Xga2sgwdfdP5osschtT8GelIbD4TRXxR5deiAiIpanSw9ERORKobATERHLU9iJiIjlKexERMTyFHYiImJ5CjsREbE8hZ2IiFiewk5ERCxPYSciIpansBMREctT2ImIiOUp7ERExPIUdiIiYnkKOxERsTyFnYiIWJ7CTkRELE9hJyIilqe/VC4il0/LaTjyJtR9CE214POaW0gssjugXyZkTIRRX4KUq80tYlfwL5Ur7ETk8ji6Az58UQEX7+wOmHgfjLzdXBObgmGnYUwR6XtHd8C+XyrorMDnDbyXR3eYa2Kawk5E+lbL6UCPTqzlwxcD722cUNiJSN868qZ6dFbk8wbe2zihsBORvlX3oblErCKO3luFnYj0raZac4lYRRy9two7EelbGsK0rjh6bxV2IiJieQo7ERGxPIWdiIhYnsJORKQLfr+5gZufauDmze4Ot7vkZCtzn2rg5qeaeOqkuRLAy1PPB/Y7d4e3C9vSVQo7EbkifLyjKRBOxlt3guoiwvt/vpWPzZXyuVPYiYjl/X5zA/PLfTAggQ2PpfHuY2lsyLFDtesCPayL++rcwH7enZtgruoFB489ENjv5tsd5krpBYWdiFicmz9VB/43/PoExgVLx93eLxB4RA8vzg0OE16slxY1jHmgJRCmAOfdzL/IfQHeeLWjx9EwZV9R2ImIxdkZMyDwv+Plzdz8VAPfOxDYHnd7Co8NMbb1MeaWNN59LJUFAwLB9fddCZ3xKZHgDPUeH0gOB2t7PXwc6TGFnYhYnIPHbnFGlex8zdyjCrEzZjCAg7zrA6fH4/XBHtsl1cHjHHR32hOU3lHYiYj1jU8JzK89lsY/jTaUd6VHddqrELIAhZ2IWJybpwyBFlhYksxtUW3aOxjq0V3t6GQ4UuKFwk5ELO9weXP0kOUBDzsBsHPHDR2teowsarltXNdWW45L78np1M3Pgwtbbrulszk+6a2evDsiInEkgUdy7JFVkk81cPNrnuBCkn7tFqisf7GBm59qZScwPCeVn4431ndifGJ4scnFV2P24nGkR2x+v99P0wlzuYjIpfH7QnNJ7DnZytwX3RzHzoL7zAEonfpqsbkktvQbBurZiYjIlUBhJyIilqdhTBHpW/EwjCk9p2FMERHA3tFqR7GEOHpvFXYi0rf6ZZpLxCri6L1V2IlI38qYaC4Rq4ij91ZhJyJ9a9SX4mq4S7rI7gi8t3FCYScifSvlaph4n7lU4t3E+wLvbZxQ2IlI3xt5O0z+lnp4VmB3BN7Lkbeba2KaLj0Qkcun5TQceRPqPoSmWvBd5C8OSGywOwKLUTImBoYu46hHF7r0QGEnIiLWpevsRETkSqGwExERy1PYiYiI5SnsRETE8hR2IiJieQo7ERGxPIWdiIhYnsJOREQsT2EnIiKWp7ATERHLU9iJiIjlKexERMTyFHYiImJ5CjsREbE8hZ2IiFiewk5ERCxPYSciIpansBMREctT2ImIiOUp7ERExPIUdiIiYnkKOxERsTyFnYiIWJ7CTkRELE9hJyIilhcIO7vTXC4iIhLfDNkWCDtHsqFWRETEAgzZFgi7hFRDrYiIiAUYsi0QdjYHJA00tBAREYljSQMD2RYUWaDiTFXgiYhI/EsaGMg0A5vf7/dHlfi94G4Gbyv4PFFVIiIiMcnuDMzRJaRG9ehC2oediIiIxeg6OxERsTyFnYiIWN7/B4asqPHyPVu1AAAAAElFTkSuQmCC;" parent="1" vertex="1">
                    <mxGeometry x="30" y="80" width="291.29" height="240" as="geometry"/>
                </mxCell>
                <mxCell id="3" value="" style="endArrow=classic;html=1;strokeColor=light-dark(#000033,#FF8F8F);exitX=0;exitY=0.25;exitDx=0;exitDy=0;entryX=1;entryY=0.5;entryDx=0;entryDy=0;" parent="1" source="4" target="14" edge="1">
                    <mxGeometry width="50" height="50" relative="1" as="geometry">
                        <mxPoint x="580" y="190" as="sourcePoint"/>
                        <mxPoint x="300" y="190" as="targetPoint"/>
                    </mxGeometry>
                </mxCell>
                <mxCell id="4" value="Default: null&lt;br&gt;1. &amp;gt;=0&lt;br&gt;2. &amp;lt;=bill&lt;div&gt;3. Can be any number&lt;br&gt;Type: text&lt;/div&gt;" style="rounded=1;whiteSpace=wrap;html=1;fillColor=#fff2cc;strokeColor=#d6b656;align=left;" parent="1" vertex="1">
                    <mxGeometry x="410" y="180" width="130" height="90" as="geometry"/>
                </mxCell>
                <mxCell id="5" value="" style="endArrow=classic;html=1;strokeColor=#000033;exitX=0;exitY=0.5;exitDx=0;exitDy=0;" parent="1" source="4" edge="1">
                    <mxGeometry width="50" height="50" relative="1" as="geometry">
                        <mxPoint x="580" y="200" as="sourcePoint"/>
                        <mxPoint x="300" y="220" as="targetPoint"/>
                    </mxGeometry>
                </mxCell>
                <mxCell id="6" value="Default: 0&lt;br&gt;1. &amp;gt;0&lt;br&gt;&lt;div&gt;2. Ca&lt;br&gt;n be any number&lt;br&gt;Type: text&lt;/div&gt;" style="rounded=1;whiteSpace=wrap;html=1;fillColor=#dae8fc;strokeColor=#6c8ebf;align=left;" parent="1" vertex="1">
                    <mxGeometry x="380" y="60" width="100" height="100" as="geometry"/>
                </mxCell>
                <mxCell id="7" style="edgeStyle=none;html=1;entryX=1;entryY=0.5;entryDx=0;entryDy=0;strokeColor=#FF0000;" parent="1" source="6" target="16" edge="1">
                    <mxGeometry relative="1" as="geometry"/>
                </mxCell>
                <mxCell id="8" value="Alert If there is any problem" style="rounded=1;whiteSpace=wrap;html=1;fillColor=#d5e8d4;strokeColor=#82b366;align=left;" parent="1" vertex="1">
                    <mxGeometry x="390" y="330" width="130" height="50" as="geometry"/>
                </mxCell>
                <mxCell id="9" style="edgeStyle=none;html=1;entryX=1;entryY=0.5;entryDx=0;entryDy=0;strokeColor=#00FF00;" parent="1" source="8" target="13" edge="1">
                    <mxGeometry relative="1" as="geometry"/>
                </mxCell>
                <mxCell id="10" value="Controls only who owes money" style="rounded=1;whiteSpace=wrap;html=1;fillColor=#e1d5e7;strokeColor=#9673a6;align=left;" parent="1" vertex="1">
                    <mxGeometry x="50" y="340" width="130" height="50" as="geometry"/>
                </mxCell>
                <mxCell id="11" style="edgeStyle=none;html=1;entryX=0;entryY=0.5;entryDx=0;entryDy=0;strokeColor=#7F00FF;" parent="1" source="10" target="12" edge="1">
                    <mxGeometry relative="1" as="geometry"/>
                </mxCell>
                <mxCell id="12" value="" style="rounded=0;whiteSpace=wrap;html=1;fillColor=none;strokeColor=#7F00FF;" parent="1" vertex="1">
                    <mxGeometry x="210" y="230" width="90" height="40" as="geometry"/>
                </mxCell>
                <mxCell id="13" value="" style="rounded=0;whiteSpace=wrap;html=1;fillColor=none;strokeColor=#00FF00;" parent="1" vertex="1">
                    <mxGeometry x="210" y="270" width="90" height="30" as="geometry"/>
                </mxCell>
                <mxCell id="14" value="" style="rounded=0;whiteSpace=wrap;html=1;fillColor=none;strokeColor=#000000;" parent="1" vertex="1">
                    <mxGeometry x="210" y="180" width="90" height="20" as="geometry"/>
                </mxCell>
                <mxCell id="17" value="" style="edgeStyle=none;html=1;exitX=1;exitY=0.5;exitDx=0;exitDy=0;" parent="1" source="15" target="4" edge="1">
                    <mxGeometry relative="1" as="geometry"/>
                </mxCell>
                <mxCell id="15" value="" style="rounded=0;whiteSpace=wrap;html=1;fillColor=none;strokeColor=#000000;" parent="1" vertex="1">
                    <mxGeometry x="210" y="210" width="90" height="20" as="geometry"/>
                </mxCell>
                <mxCell id="16" value="" style="rounded=0;whiteSpace=wrap;html=1;fillColor=none;strokeColor=#FF0000;" parent="1" vertex="1">
                    <mxGeometry x="210" y="150" width="90" height="20" as="geometry"/>
                </mxCell>
                <mxCell id="18" value="100" style="text;html=1;align=center;verticalAlign=middle;resizable=0;points=[];autosize=1;strokeColor=none;fillColor=none;" vertex="1" parent="1">
                    <mxGeometry x="400" y="490" width="40" height="30" as="geometry"/>
                </mxCell>
                <mxCell id="19" value="60" style="text;html=1;align=center;verticalAlign=middle;resizable=0;points=[];autosize=1;" vertex="1" parent="1">
                    <mxGeometry x="340" y="542" width="40" height="30" as="geometry"/>
                </mxCell>
                <mxCell id="20" value="40" style="text;html=1;align=center;verticalAlign=middle;resizable=0;points=[];autosize=1;strokeColor=none;fillColor=none;" vertex="1" parent="1">
                    <mxGeometry x="460" y="542" width="40" height="30" as="geometry"/>
                </mxCell>
                <mxCell id="21" value="100" style="text;html=1;align=center;verticalAlign=middle;resizable=0;points=[];autosize=1;strokeColor=#b85450;fillColor=#f8cecc;" vertex="1" parent="1">
                    <mxGeometry x="280" y="590" width="40" height="30" as="geometry"/>
                </mxCell>
                <mxCell id="22" value="Я оплачиваю" style="text;html=1;align=center;verticalAlign=middle;resizable=0;points=[];autosize=1;strokeColor=none;fillColor=none;" vertex="1" parent="1">
                    <mxGeometry x="170" y="590" width="100" height="30" as="geometry"/>
                </mxCell>
                <mxCell id="23" value="Друг оплачивает" style="text;html=1;align=center;verticalAlign=middle;resizable=0;points=[];autosize=1;strokeColor=none;fillColor=none;" vertex="1" parent="1">
                    <mxGeometry x="150" y="630" width="120" height="30" as="geometry"/>
                </mxCell>
                <mxCell id="25" value="Баланс +40 друг мне должен 40" style="text;html=1;align=center;verticalAlign=middle;resizable=0;points=[];autosize=1;strokeColor=none;fillColor=none;" vertex="1" parent="1">
                    <mxGeometry x="335" y="590" width="200" height="30" as="geometry"/>
                </mxCell>
                <mxCell id="26" value="100" style="text;html=1;align=center;verticalAlign=middle;resizable=0;points=[];autosize=1;strokeColor=#82b366;fillColor=#d5e8d4;" vertex="1" parent="1">
                    <mxGeometry x="280" y="630" width="40" height="30" as="geometry"/>
                </mxCell>
                <mxCell id="27" value="Баланс -60 друг мне дожен -60 = я должен другу 60" style="text;html=1;align=center;verticalAlign=middle;resizable=0;points=[];autosize=1;strokeColor=none;fillColor=none;" vertex="1" parent="1">
                    <mxGeometry x="335" y="630" width="310" height="30" as="geometry"/>
                </mxCell>
                <mxCell id="28" value="Баланс 40" style="text;html=1;align=center;verticalAlign=middle;resizable=0;points=[];autosize=1;strokeColor=none;fillColor=none;" vertex="1" parent="1">
                    <mxGeometry x="635" y="590" width="80" height="30" as="geometry"/>
                </mxCell>
                <mxCell id="29" style="edgeStyle=none;html=1;entryX=0.576;entryY=0.066;entryDx=0;entryDy=0;entryPerimeter=0;" edge="1" parent="1" source="18" target="19">
                    <mxGeometry relative="1" as="geometry"/>
                </mxCell>
                <mxCell id="30" style="edgeStyle=none;html=1;entryX=0.469;entryY=0.066;entryDx=0;entryDy=0;entryPerimeter=0;" edge="1" parent="1" source="18" target="20">
                    <mxGeometry relative="1" as="geometry"/>
                </mxCell>
                <mxCell id="31" value="Баланс -60" style="text;html=1;align=center;verticalAlign=middle;resizable=0;points=[];autosize=1;strokeColor=none;fillColor=none;" vertex="1" parent="1">
                    <mxGeometry x="630" y="630" width="90" height="30" as="geometry"/>
                </mxCell>
            </root>
        </mxGraphModel>
    </diagram>
</mxfile>